<svg id="Слой_1" data-name="Слой 1" xmlns="http://www.w3.org/2000/svg" viewBox="0 0 1020 1020"><defs><style>.cls-1{fill:#65fc77;}.cls-2{fill:#b8fc77;}.cls-3{fill:#eaf281;}</style></defs><title>Монтажная область 1</title><circle class="cls-1" cx="509.83" cy="509.17" r="308.17"/><path class="cls-2" d="M818,510.83C818,681,680,819,509.83,819S201.73,681,201.66,510.83c-.07-176.89,306.45-368.25,309,.83C511.72,665.33,818,340.63,818,510.83Z"/><path class="cls-3" d="M648.38,356.27l-2.87,0c-11.57.11-19.5-11.89-14.59-22.37l.1-.21a52,52,0,1,1,51.39,74c-13.38,1.19-22.87-12.85-17.11-25h0A18.54,18.54,0,0,0,648.38,356.27Z"/></svg>